<?xml version="1.0" encoding="UTF-8"?>
<svg id="Layer_2" data-name="Layer 2" xmlns="http://www.w3.org/2000/svg" viewBox="0 0 342.99 229.07">
  <defs>
    <style>
      .cls-1 {
        fill: #fff;
        stroke-width: 0px;
      }
    </style>
  </defs>
  <g id="Layer_1-2" data-name="Layer 1">
    <path class="cls-1" d="M175.35,30.99c-19.33-6.41-40.06-7.47-60.12-4.39-10.11,1.55-19.87,4.1-29.15,8.43-17.77,8.29-34.21,21.11-46.01,36.82-5.86,7.8-10.38,16.71-12.2,26.35-1.66,8.74-1.24,17.75.85,26.38,4.32,17.79,15.38,33.53,29.95,44.45,15.93,11.94,35.37,18.38,54.9,21.32s39.74,2.77,59.39.19c19.65-2.57,38.95-7.58,57.4-14.81s36.14-16.62,52.47-27.93c8.14-5.64,15.96-11.74,23.39-18.28s15.24-13.66,20.44-22.37c5.47-9.16,6.87-19.69,5.5-30.17-1.33-10.15-4.55-20.55-9.51-29.53s-12.25-15.35-21.36-19.64c-9.57-4.51-20.06-7.17-30.33-9.51-22.35-5.09-45.25-7.31-68.11-8.46-21.79-1.1-43.71-1.72-65.51-.75-21.06.93-42.19,3.51-62.44,9.53-19.09,5.68-38.34,14.34-53.09,28.01-6.95,6.44-12.73,14.15-16.46,22.89S.1,86.81,0,95.82c-.2,18.51,6.15,37.13,17,52.06,11.33,15.59,26.99,27.56,43.95,36.47,18.2,9.56,38.05,16.04,58.09,20.45,21.99,4.84,44.62,6.96,67.12,5.8,20.95-1.08,41.76-5.01,61.55-12.01s36.67-15.93,52.67-27.83c7.94-5.91,15.5-12.4,22.32-19.58,6.71-7.06,12.68-14.97,16.43-24.02,4.22-10.19,4.59-21.13,2.94-31.92s-4.81-21.42-8.18-31.75c-3.03-9.27-6.86-18.42-12.92-26.14s-14.74-13.5-23.89-17.51c-9.87-4.33-20.35-7.33-30.82-9.79-11.05-2.61-22.27-4.46-33.53-5.85C210.27,1.44,187.46.21,164.82.01s-44.33,1.36-65.41,8.05c-17.38,5.52-33.59,14.85-46.33,28-12.23,12.63-20.82,28.7-22.55,46.33-1.99,20.24,5.13,40.08,15.33,57.26,10.26,17.28,23.65,32.93,38.05,46.89,13.96,13.53,29.78,25.56,47.72,33.28,18.89,8.13,39.43,10.73,59.83,8.45s41.33-9.26,60.24-18.59c17.87-8.82,35.97-19.78,44.51-38.63,4.26-9.39,6.3-19.54,7.92-29.67s3.76-21.26,1.95-31.79c-.59-3.47-1.57-7.09-3.58-10.03-1.54-2.26-3.45-4.26-5.44-6.13-5.67-5.32-12.16-9.81-18.69-14.01-18.06-11.62-37.48-20.69-57.02-29.49-7.84-3.53-15.7-7-23.64-10.27-7.38-3.04-14.8-6.12-22.36-8.68-1.83-.62-2.62,2.28-.8,2.89,7.56,2.56,14.99,5.64,22.36,8.68,8.13,3.35,16.17,6.92,24.18,10.54,18.96,8.56,37.79,17.41,55.34,28.65,6.42,4.11,12.79,8.48,18.38,13.7,1.84,1.72,3.66,3.55,5.09,5.64,1.98,2.9,2.84,6.46,3.37,9.89,1.6,10.4-.67,21.32-2.37,31.58s-3.71,19.77-8.13,28.76c-8.92,18.16-27.4,28.52-44.95,36.93-18.58,8.91-38.63,15.46-59.23,17.33-19.92,1.81-39.9-1.14-58.12-9.51s-32.51-19.82-46-33.14c-13.92-13.75-26.89-29.03-36.75-45.99-9.8-16.87-16.38-36.19-14.05-55.9,2.02-17.12,11.06-32.61,23.22-44.56,12.94-12.7,29.14-21.42,46.47-26.48,20.7-6.04,42.43-7.25,63.88-6.95s44.23,1.51,66.11,4.24c11,1.37,21.94,3.24,32.72,5.81s20.61,5.35,30.26,9.69c8.93,4.01,17.19,9.53,23.09,17.47s9.35,16.94,12.24,26.14c6.23,19.83,13.06,42.14,3.65,62.07-4.13,8.76-10.37,16.33-17.18,23.14s-14.27,13.07-22.12,18.68c-15.79,11.29-33.3,20.11-51.67,26.34-19.45,6.59-39.81,10.24-60.33,11.11-21.94.93-43.96-1.25-65.38-6.06-19.46-4.38-38.73-10.68-56.41-20-16.6-8.76-32.1-20.49-43.08-35.89S2.64,113.1,3.02,95.08c.18-8.79,1.96-17.62,5.63-25.63,3.91-8.54,9.84-15.93,16.86-22.12,14.8-13.04,33.85-21.22,52.66-26.54,19.82-5.6,40.39-7.96,60.92-8.78s42.34-.24,63.45.81c22.28,1.11,44.59,3.23,66.4,8.09,10.16,2.26,20.6,4.8,30.1,9.14,9.08,4.15,16.34,10.33,21.16,19.15s8.12,19.43,9.18,29.53-.86,20.45-6.77,29.21c-5.5,8.15-13.14,14.85-20.54,21.22s-15.13,12.27-23.2,17.72c-16.01,10.81-33.26,19.83-51.31,26.73-17.99,6.87-36.81,11.7-55.92,14.09-19.11,2.39-38.73,2.59-57.8-.34-19.03-2.92-37.86-9.18-53.43-20.77-14.31-10.66-25.05-26.31-29.02-43.77-1.94-8.51-2.16-17.46-.18-25.98,2.17-9.35,6.93-17.89,12.89-25.34,11.89-14.85,27.83-26.91,45.18-34.66,8.88-3.96,18.43-6.17,28.03-7.55,19.12-2.75,38.86-1.52,57.24,4.58,1.84.61,2.62-2.29.8-2.89Z"/>
  </g>
</svg>