<?xml version="1.0" encoding="UTF-8"?>
<svg id="Layer_2" data-name="Layer 2" xmlns="http://www.w3.org/2000/svg" viewBox="0 0 129.3 46.15">
  <defs>
    <style>
      .cls-1 {
        fill: #fff;
        stroke-width: 0px;
      }
    </style>
  </defs>
  <g id="Layer_1-2" data-name="Layer 1">
    <g>
      <path class="cls-1" d="M38,23.44c23.29-.53,46.6-.58,69.89-.15,6.66.12,13.31.29,19.96.49,1.93.06,1.93-2.94,0-3-23.29-.71-46.59-.94-69.89-.68-6.66.07-13.31.19-19.97.34-1.93.04-1.93,3.04,0,3h0Z"/>
      <path class="cls-1" d="M34.31,3.05c-.27,13.88.16,27.77,1.29,41.61l2.26-1.3c-11.87-7.31-23.75-14.63-35.62-21.94v2.59c6.03-3.1,11.84-6.6,17.38-10.51,2.71-1.91,5.35-3.93,7.93-6.01,2.32-1.88,4.87-4.06,7.94-4.47.81-.11,1.49-.61,1.5-1.5,0-.73-.7-1.61-1.5-1.5-3.19.43-5.78,1.99-8.28,3.94-2.78,2.16-5.49,4.38-8.35,6.43C13.09,14.5,7.03,18.18.73,21.42c-1.03.53-.91,2.03,0,2.59,11.87,7.31,23.75,14.63,35.62,21.94.92.56,2.35-.15,2.26-1.3-1.13-13.84-1.56-27.73-1.29-41.61.04-1.93-2.96-1.93-3,0h0Z"/>
      <path class="cls-1" d="M34.33,1.52c.04.66.05,1.32.03,1.98,0,.38.17.79.44,1.06.14.15.3.25.48.31.18.09.37.14.58.13.39-.02.79-.14,1.06-.44s.43-.65.44-1.06c.01-.66,0-1.32-.03-1.98-.02-.4-.15-.77-.44-1.06-.14-.15-.3-.25-.48-.31-.18-.09-.37-.14-.58-.13-.39.02-.79.14-1.06.44s-.46.66-.44,1.06h0Z"/>
    </g>
  </g>
</svg>