<?xml version="1.0" encoding="UTF-8"?>
<svg id="Layer_2" data-name="Layer 2" xmlns="http://www.w3.org/2000/svg" viewBox="0 0 473.23 288">
  <defs>
    <style>
      .cls-1 {
        fill: none;
        stroke: #fff;
        stroke-miterlimit: 10;
      }
    </style>
  </defs>
  <g id="Layer_1-2" data-name="Layer 1">
    <path class="cls-1" d="M316.89,24.46c19.42,2.8,35.18,7.05,46.44,10.63,11.21,3.57,42.34,14.24,75.56,38.23,18.95,13.68,23.98,21.16,26.86,26.76,6.27,12.21,6.53,23.72,6.88,39.65.24,10.77.44,24.77-4.86,42-5.2,16.91-13.03,28.25-19.12,36.93-10.34,14.72-20.58,24.01-29.07,31.62-5.02,4.5-19.22,17.23-33.7,25.3-10.98,6.12-28.43,13.1-86.41,11.74-9.18-.21-38.63-1.09-92.66-8.34-42.35-5.69-64.04-8.68-89.02-16.35-29.03-8.9-51.11-15.92-73.77-34.84-14.36-11.99-36.18-30.21-42.07-60.82-6.73-34.99,11.7-63.64,19.75-76.14,17.43-27.08,40.14-40.06,59.86-51.32,32.67-18.67,61.76-24.42,80.81-28.01,35.14-6.63,61.97-5.24,90.74-3.75,22.65,1.18,51.83,2.86,88.29,13.17,31.21,8.82,53.25,19.86,70.15,36.18,6.67,6.44,10.83,12.05,12.27,14.05,14.03,19.45,17.4,38.85,19.12,49.41,2.45,15.08,8.11,49.93-11.43,84.61-16.36,29.04-41.45,42.07-55.46,49.36-27.87,14.48-52.13,16.35-84.03,18.81-38.47,2.97-67.61-1.16-91.71-4.71-24.86-3.67-53.05-8.03-84.34-22.46-17.79-8.21-30.24-16.75-35.6-20.59-7.22-5.17-17.97-12.97-29.44-25.77-10.09-11.26-18.16-20.27-22.56-34.08-5.32-16.72-2.32-31.23-.05-41.58,7.58-34.5,29.41-56.56,39.82-66.82,25.61-25.24,52.65-35.43,69.78-41.68,30.37-11.08,54.51-12.52,87.17-14.47,8.8-.52,44.33-2.39,91.73,3.64,39.67,5.04,59.51,7.57,83.91,19.81,16.36,8.21,39.9,20.02,56.08,46.91,20.04,33.31,15.39,67.49,13.72,78.6-5.59,37.05-26.16,60.46-35.31,70.59-24.09,26.68-51.26,37.15-67.03,43.01-30.17,11.22-54.67,11.68-86.17,12.27-19.27.36-43.58-2.3-92.21-7.63-49.75-5.45-65.55-8.45-83.78-14.02-41.16-12.58-53.35-25.66-58.99-33.14-10.76-14.25-14.45-30.27-16.27-38.19-1.59-6.92-5.31-23.75-1.96-43.07,5.22-30.14,24.63-49.04,41-64.99,27.81-27.09,56.84-38.35,65.51-41.48,8.15-2.95,26.02-8.72,87.37-10.46,23.6-.67,55.44-.79,93.39,1.41"/>
  </g>
</svg>